<?xml version="1.0" encoding="UTF-8"?>
<svg id="Capa_1" xmlns="http://www.w3.org/2000/svg" version="1.1" viewBox="0 0 51.669 19.041">
  <!-- Generator: Adobe Illustrator 30.1.0, SVG Export Plug-In . SVG Version: 2.1.1 Build 136)  -->
  <defs>
    <style>
      .st0 {
        fill: #fff;
      }

      .st1 {
        fill: #f70;
      }
    </style>
  </defs>
  <path class="st0" d="M9.345,18.706l-2.652-13.372c-.182-.919-.988-1.58-1.925-1.58h-.192c-.937,0-1.743.662-1.925,1.58L0,18.706h1.869l2.584-12.936c.048-.24.392-.24.44,0l2.584,12.936h1.869-.001Z"/>
  <path class="st0" d="M29.904,18.706l-2.652-13.372c-.182-.919-.988-1.58-1.925-1.58h-.192c-.937,0-1.743.662-1.925,1.58l-2.652,13.372h1.869l2.584-12.936c.048-.24.392-.24.44,0l2.584,12.936h1.869Z"/>
  <path class="st0" d="M16.464,11.489c-.054-.124.036-.262.171-.262h.169c1.547,0,2.802-1.254,2.802-2.802h0c0-2.581-2.092-4.673-4.673-4.673h-3.719v14.952h1.869V5.617h1.92c1.548,0,2.804,1.255,2.804,2.804h0c0,.517-.418.936-.935.936h-.352c-1.348,0-2.253,1.384-1.712,2.619l2.947,6.729h1.869l-3.16-7.216Z"/>
  <path class="st0" d="M31.761,3.753v10.266c0,2.584,2.096,4.687,4.673,4.687s4.673-2.102,4.673-4.687V3.753h-1.864v10.266c0,1.556-1.257,2.817-2.808,2.817s-2.808-1.261-2.808-2.817V3.753h-1.866Z"/>
  <path class="st0" d="M51.401,18.706h-6.36c-1.626,0-2.609-1.799-1.73-3.167l6.096-9.489c.12-.187-.014-.432-.236-.432h-6.174v-1.869h6.346c1.626,0,2.609,1.799,1.73,3.167l-6.096,9.489c-.12.187.014.432.236.432h6.189v1.869h0Z"/>
  <polygon class="st1" points="39.249 0 35.511 1.884 35.511 3.749 39.249 1.865 39.249 0"/>
</svg>